# xmcd
#
# Track frame offsets: 
#        150
#        14861
#        29491
#        44203
#        52227
#        66609
#        80770
#        90813
#        115186
#        129143
#        142976
#        157892
#        178292
#        193225
#
# Disc length: 2801 seconds
#
# Revision: 2
# Processed by: cddbd v1.5.2PL0 Copyright (c) Steve Scherf et al.
# Submitted via: ExactAudioCopyFreeDBPlugin 1.0
#
DISCID=d00aef0e
DTITLE=Ночные снайперы - Тригонометрия II CD-1
DYEAR=2005
DGENRE=
TTITLE0=Опасное лето
TTITLE1=Травы
TTITLE2=Тайна
TTITLE3=Paris
TTITLE4=Солнце
TTITLE5=Ugo2
TTITLE6=Бродский
TTITLE7=Она выпускает змей
TTITLE8=Актриса
TTITLE9=Автоблюз
TTITLE10=Редкая птица
TTITLE11=Полчаса
TTITLE12=Алмазный британец
TTITLE13=Рулетка
EXTD=
EXTT0=
EXTT1=
EXTT2=
EXTT3=
EXTT4=
EXTT5=
EXTT6=
EXTT7=
EXTT8=
EXTT9=
EXTT10=
EXTT11=
EXTT12=
EXTT13=
PLAYORDER=
